<svg data-v-0dd9719b="" version="1.0" xmlns="http://www.w3.org/2000/svg" xmlns:xlink="http://www.w3.org/1999/xlink" width="100%" height="100%" viewBox="0 0 340.000000 250.000000" preserveAspectRatio="xMidYMid meet" color-interpolation-filters="sRGB" style="margin: auto;"> <rect data-v-0dd9719b="" x="0" y="0" width="100%" height="100%" fill="#fff" fill-opacity="1" class="background"></rect> <rect data-v-0dd9719b="" x="0" y="0" width="100%" height="100%" fill="url(#watermark)" fill-opacity="1" class="watermarklayer"></rect> <g data-v-0dd9719b="" fill="#333" class="icon-text-wrapper icon-svg-group iconsvg" transform="translate(48.1199951172032,95.23248481750488)"><g class="iconsvg-imagesvg" transform="translate(0,0)"><g><rect fill="#333" fill-opacity="0" stroke-width="2" x="0" y="0" width="60" height="59.53503140472906" class="image-rect"></rect> <svg x="0" y="0" width="60" height="59.53503140472906" filtersec="colorsb657406294" class="image-svg-svg primary" style="overflow: visible;"><svg xmlns="http://www.w3.org/2000/svg" viewBox="-0.00026454287581145763 0 111.20198822021484 110.33999633789062"><title>资源 49</title><path d="M80.88 63.88l23.42 18.67-2 2.66-30.77-24.43.19-.88c3 0 6 .05 9 0q14.07-.28 28.12-.64c1.2 0 2.31-.24 2.36 1.61s-1 1.75-2.24 1.78q-13.92.3-27.85.66z" fill="#258bfa"></path><path d="M30.21 46.64L6.91 28.07l2-2.68L39.7 49.85l-.19.85c-3 0-6-.05-9.06 0q-14.07.28-28.13.64c-1.22 0-2.3.19-2.32-1.64S1.09 48 2.29 48q12.57-.28 25.15-.61c.88 0 1.75-.1 2.63-.15z" fill="#fbc64d"></path><path d="M8.42 84.81l-2.07-2.65 23.92-18.35-.19-.56-29.6-1.36c-.76-2.56-.09-3.39 2.4-3.26 12.19.61 24.39 1.08 36.9 2.17z" fill="#258bfa"></path><path d="M55.07 29.41L66.18.65l3.14 1.17L55.17 38.6h-.56L41.88 1.2 45 0zM70.33 34l25.26-17.55 2 2.68-32.22 22.5-.54-.29L75.2 3.25l3.26.87C75.77 14 73.15 23.63 70.33 34z" fill="#fbc64d"></path><path d="M36 107.45l-3.21-1C35.43 96.63 38 87 40.65 77.37l-.45-.32-24.6 17.11-2-2.69c10.84-7.57 21.54-15 32.25-22.5l.53.26C42.94 81.86 39.5 94.49 36 107.45z" fill="#258bfa"></path><path d="M111 48.72c-.07 1.24-.11 2.11-.18 3.32l-39.13-1.66-.29-.55 31.36-24 2.1 2.64-23.92 18.32.09.56zM45.92 41.51L13.29 19.23l1.88-2.79 24.92 17 .51-.29c-2.68-9.51-5.36-19-8.11-28.8l3.18-1.07C39.28 16 42.84 28.55 46.39 41.11z" fill="#fbc64d"></path><path d="M70.62 77.59c2.67 9.48 5.35 19 8.1 28.71l-3.2 1C71.91 94.6 68.36 82 64.81 69.47l.51-.34 32.6 22.25L96 94.15l-24.92-17zM66.09 110.34c-3.25-9.51-6.48-19-10-29.13L45 110l-3.14-1.15c4.78-12.42 9.47-24.62 14.43-37.48.57 1.63.93 2.61 1.26 3.6 3.65 10.67 7.24 21.37 11 32 .79 2.23.36 3.23-2.46 3.37z" fill="#258bfa"></path></svg></svg> <!----></g></g> <g transform="translate(67,16.862515449523926)"><g data-gra="path-name" fill-rule="" class="tp-name iconsvg-namesvg"><g transform="scale(1)"><g><path d="M12.55-25.23L12.55-8.71Q12.55-6.6 12.03-4.93 11.51-3.26 10.5-2.1 9.49-0.95 8.01-0.33 6.53 0.28 4.61 0.28L4.61 0.28Q2.9 0.28 1.06-0.21L1.06-0.21Q1.09-0.72 1.14-1.22 1.2-1.73 1.25-2.22L1.25-2.22Q1.29-2.52 1.47-2.7 1.65-2.89 2.02-2.89L2.02-2.89Q2.34-2.89 2.87-2.73 3.4-2.57 4.28-2.57L4.28-2.57Q5.44-2.57 6.35-2.92 7.25-3.27 7.88-4.01 8.5-4.75 8.83-5.91 9.15-7.06 9.15-8.64L9.15-8.64 9.15-25.23 12.55-25.23ZM28.5-2.71L28.5-2.71Q30.07-2.71 31.3-3.24 32.54-3.77 33.39-4.72 34.24-5.67 34.69-6.99 35.14-8.31 35.14-9.89L35.14-9.89 35.14-25.23 38.54-25.23 38.54-9.89Q38.54-7.71 37.84-5.85 37.15-3.98 35.85-2.61 34.56-1.25 32.69-0.48 30.83 0.3 28.5 0.3L28.5 0.3Q26.18 0.3 24.31-0.48 22.45-1.25 21.14-2.61 19.84-3.98 19.15-5.85 18.45-7.71 18.45-9.89L18.45-9.89 18.45-25.23 21.85-25.23 21.85-9.91Q21.85-8.33 22.3-7.01 22.75-5.69 23.6-4.74 24.45-3.79 25.7-3.25 26.94-2.71 28.5-2.71ZM44.4-25.23L59.95-25.23 59.95-22.45 47.83-22.45 47.83-14.07 57.64-14.07 57.64-11.39 47.83-11.39 47.83-2.78 59.95-2.78 59.95 0 44.4 0 44.4-25.23ZM78.61-22.9L77.78-21.29Q77.62-21.02 77.45-20.89 77.27-20.76 76.99-20.76L76.99-20.76Q76.69-20.76 76.29-21.06 75.9-21.36 75.29-21.72 74.68-22.08 73.83-22.38 72.98-22.68 71.76-22.68L71.76-22.68Q70.62-22.68 69.74-22.37 68.86-22.06 68.27-21.53 67.68-21 67.38-20.29 67.08-19.58 67.08-18.75L67.08-18.75Q67.08-17.69 67.6-17 68.12-16.3 68.97-15.81 69.82-15.32 70.91-14.96 71.99-14.6 73.13-14.21 74.26-13.82 75.34-13.34 76.43-12.85 77.28-12.11 78.13-11.37 78.65-10.3 79.17-9.23 79.17-7.66L79.17-7.66Q79.17-6 78.61-4.55 78.05-3.1 76.96-2.02 75.88-0.95 74.3-0.33 72.73 0.28 70.72 0.28L70.72 0.28Q68.27 0.28 66.26-0.61 64.24-1.5 62.82-3.01L62.82-3.01 63.8-4.63Q63.94-4.82 64.15-4.96 64.35-5.09 64.6-5.09L64.6-5.09Q64.96-5.09 65.44-4.69 65.92-4.3 66.63-3.82 67.34-3.35 68.35-2.95 69.37-2.55 70.83-2.55L70.83-2.55Q72.04-2.55 72.99-2.89 73.94-3.22 74.6-3.83 75.26-4.44 75.62-5.28 75.97-6.13 75.97-7.17L75.97-7.17Q75.97-8.31 75.45-9.04 74.93-9.77 74.08-10.26 73.24-10.76 72.16-11.1 71.07-11.44 69.94-11.8 68.8-12.17 67.72-12.64 66.64-13.12 65.79-13.87 64.95-14.63 64.43-15.77 63.91-16.9 63.91-18.57L63.91-18.57Q63.91-19.91 64.43-21.16 64.95-22.41 65.93-23.38 66.92-24.35 68.37-24.93 69.82-25.51 71.71-25.51L71.71-25.51Q73.82-25.51 75.56-24.84 77.31-24.17 78.61-22.9L78.61-22.9ZM103.98-25.23L103.98 0 100.55 0 100.55-11.48 86.95-11.48 86.95 0 83.52 0 83.52-25.23 86.95-25.23 86.95-13.98 100.55-13.98 100.55-25.23 103.98-25.23ZM110.14-25.23L125.69-25.23 125.69-22.45 113.57-22.45 113.57-14.07 123.38-14.07 123.38-11.39 113.57-11.39 113.57-2.78 125.69-2.78 125.69 0 110.14 0 110.14-25.23ZM132.36-25.23L132.36-25.23Q132.82-25.23 133.04-25.11 133.26-25 133.54-24.65L133.54-24.65 148.15-5.63Q148.1-6.09 148.08-6.52 148.06-6.95 148.06-7.36L148.06-7.36 148.06-25.23 151.06-25.23 151.06 0 149.33 0Q148.93 0 148.65-0.14 148.38-0.28 148.12-0.62L148.12-0.62 133.52-19.61Q133.56-19.17 133.57-18.75 133.59-18.33 133.59-17.98L133.59-17.98 133.59 0 130.6 0 130.6-25.23 132.36-25.23ZM168.47-2.48L168.47-2.48Q169.49-2.48 170.34-2.58 171.2-2.68 171.95-2.87 172.71-3.06 173.38-3.34 174.05-3.61 174.72-3.96L174.72-3.96 174.72-9.52 170.81-9.52Q170.48-9.52 170.27-9.72 170.07-9.91 170.07-10.19L170.07-10.19 170.07-12.13 177.82-12.13 177.82-2.45Q176.87-1.76 175.84-1.25 174.81-0.74 173.64-0.4 172.46-0.05 171.13 0.11 169.79 0.28 168.22 0.28L168.22 0.28Q165.48 0.28 163.19-0.66 160.9-1.6 159.24-3.3 157.59-5 156.66-7.38 155.74-9.75 155.74-12.61L155.74-12.61Q155.74-15.49 156.65-17.87 157.55-20.25 159.23-21.95 160.92-23.64 163.3-24.58 165.69-25.51 168.64-25.51L168.64-25.51Q170.14-25.51 171.43-25.29 172.71-25.07 173.81-24.66 174.91-24.24 175.85-23.65 176.78-23.06 177.59-22.32L177.59-22.32 176.62-20.77Q176.32-20.3 175.85-20.3L175.85-20.3Q175.56-20.3 175.23-20.49L175.23-20.49Q174.79-20.74 174.24-21.09 173.7-21.44 172.91-21.77 172.13-22.1 171.07-22.32 170-22.55 168.54-22.55L168.54-22.55Q166.41-22.55 164.68-21.86 162.96-21.16 161.74-19.87 160.53-18.57 159.88-16.73 159.23-14.89 159.23-12.61L159.23-12.61Q159.23-10.21 159.9-8.34 160.58-6.46 161.81-5.16 163.05-3.86 164.74-3.17 166.43-2.48 168.47-2.48Z" transform="translate(-1.059999942779541, 25.510000228881836)"></path></g> <!----> <!----> <!----> <!----> <!----> <!----> <!----></g></g> <!----></g></g><defs v-gra="od"></defs></svg>